<?xml version="1.0" standalone="no"?>
<!DOCTYPE svg PUBLIC "-//W3C//DTD SVG 20010904//EN"
 "http://www.w3.org/TR/2001/REC-SVG-20010904/DTD/svg10.dtd">
<svg version="1.0" xmlns="http://www.w3.org/2000/svg"
 width="512.000000pt" height="512.000000pt" viewBox="0 0 512.000000 512.000000"
 preserveAspectRatio="xMidYMid meet">
<metadata>
Created by potrace 1.14, written by Peter Selinger 2001-2017
</metadata>
<g transform="translate(0.000000,512.000000) scale(0.100000,-0.100000)"
fill="#000000" stroke="none">
<path d="M848 5096 c-103 -42 -176 -125 -197 -226 -9 -41 -11 -619 -9 -2340
l3 -2285 26 -56 c42 -90 118 -154 209 -177 65 -16 3291 -17 3358 -1 55 14 129
61 167 107 15 18 38 59 51 90 l23 57 1 1711 c0 941 -3 1726 -6 1745 -5 29
-115 143 -683 710 -568 569 -681 678 -710 683 -19 3 -516 6 -1105 6 l-1071 -1
-57 -23z m2033 -788 c0 -271 3 -506 5 -523 8 -47 48 -129 81 -162 43 -44 104
-80 149 -89 22 -5 42 -9 47 -10 4 -1 230 -2 502 -3 l495 -1 0 -1600 0 -1600
-1600 0 -1600 0 0 2240 0 2240 960 0 960 0 1 -492z m689 -103 l365 -365 -368
0 -367 0 0 365 c0 201 1 365 3 365 1 0 166 -164 367 -365z"/>
<path d="M1854 4466 c-17 -8 -44 -31 -60 -52 -28 -36 -29 -43 -33 -155 l-3
-118 -52 -17 c-208 -67 -367 -228 -411 -416 -75 -321 196 -638 566 -663 134
-10 176 -18 233 -46 149 -75 188 -221 88 -331 -60 -66 -138 -98 -253 -104 -83
-3 -143 14 -229 66 -50 30 -77 40 -109 40 -70 0 -127 -41 -150 -109 -16 -49
-14 -76 9 -122 30 -57 150 -132 271 -169 l37 -11 3 -117 c4 -102 7 -121 26
-148 66 -93 192 -96 260 -7 26 34 28 43 31 154 l4 117 51 17 c205 66 362 223
410 408 20 76 15 206 -11 279 -58 162 -210 305 -382 359 -82 26 -91 28 -170
34 -191 16 -231 29 -313 104 -38 34 -55 68 -62 124 -17 127 121 245 293 252
97 4 152 -10 239 -63 75 -46 119 -53 176 -28 56 24 97 89 97 153 0 37 -35 97
-73 126 -44 33 -138 80 -203 101 l-52 17 -3 119 c-4 128 -12 149 -71 193 -34
25 -113 32 -154 13z"/>
<path d="M2978 2867 c-71 -32 -105 -96 -93 -175 9 -62 65 -118 127 -127 24 -3
196 -5 384 -3 l341 3 36 28 c90 68 86 192 -7 261 -26 20 -41 21 -394 23 -270
1 -374 -1 -394 -10z"/>
<path d="M2978 2227 c-71 -32 -105 -96 -93 -175 9 -62 65 -118 127 -127 24 -3
196 -5 384 -3 l341 3 36 28 c90 68 86 192 -7 261 -26 20 -41 21 -394 23 -270
1 -374 -1 -394 -10z"/>
<path d="M1395 1593 c-35 -9 -87 -55 -102 -91 -17 -41 -10 -111 14 -148 8 -14
30 -35 47 -47 l31 -22 1176 0 1176 0 37 29 c49 37 69 85 61 143 -7 53 -26 85
-69 116 l-31 22 -1160 1 c-638 1 -1169 0 -1180 -3z"/>
<path d="M1374 946 c-17 -8 -44 -31 -60 -51 -24 -32 -29 -48 -29 -96 0 -62 16
-94 69 -133 27 -21 34 -21 1190 -24 1291 -3 1208 -7 1263 65 23 30 28 46 28
92 -1 63 -19 98 -69 134 l-31 22 -1165 2 c-967 2 -1170 0 -1196 -11z"/>
</g>
</svg>
